<?xml version="1.0" encoding="utf-8"?>
<!-- Generator: Adobe Illustrator 24.1.0, SVG Export Plug-In . SVG Version: 6.00 Build 0)  -->
<svg version="1.1" id="Layer_1" xmlns="http://www.w3.org/2000/svg" xmlns:xlink="http://www.w3.org/1999/xlink" x="0px" y="0px"
	 viewBox="0 0 432 432" style="enable-background:new 0 0 432 432;" xml:space="preserve">
<style type="text/css">
	.st0{fill:#64BE71;}
</style>
<g>
	<path class="st0" d="M134.15,194.88l13.51-12.85l35.67,2.26l6.87,7.85l-0.27,4.76l-36.33-4.85L134.15,194.88z M297.14,194.88
		l-13.51-12.85l-35.67,2.26l-6.87,7.85l0.27,4.76l36.33-4.85L297.14,194.88z M100.17,204.47l5.05,6.73l-1.22,19.13l2.91,6.27
		l7.34,9.64l2.91-11.78l-0.61-13.01l-3.52-3.67l-0.31-11.17l2.76-12.93l-2.76-11.66l4.04-10.24l-0.64-9.99l3.61-11.27l4.25-11.27
		l4.68-6.16l3.4-3.19l4.04-8.29l-4.89,2.55l8.29-11.05l9.03-9.19l6.13-1.78l9.36-4.2l12.99-1.34l-2.15,5.96l10.01-1.43h7.63
		l6.44-0.95l10.97-0.48l12.87-0.95l8.14-2.72l8.88-6.41l8.26-5.37l4.96,0.62l7.44,6.61l5.37,6.41l5.17,5.79l5.58,0.62l4.75,6.41
		l5.58,10.33l3.85,9.98l1.84,7.76l-5.51-0.41l-6.54-4.7l4.29,9.19l8.17,6.94l9.19,5.92l0.41,11.64l4.49,9.4L316.5,193l-2.69,9.34
		l0.35,9.04l1.11,9.59l-2.36,12.23l-0.97,13.9l4.45,0.83l6.39-10.43l3.2-11.12l0.83-11.82l-0.42-6.95l0.83-11.82l6.31-5.18
		l4.94-9.07l4.83-6.48l0.73-21.09l-4.29-4.83l-0.64-5.32l-4.53-8.54l-0.34-12.47l-5.89-3.52l-4.63-14.88l-8.07-6.02l-1.12-8.6
		l-9.06-8l-7.74-3.11l-12.7-16l-8.99-0.26l-20.7-16.27l-1.79,6.55l-22.29-12.75h-24.6l-5.56,5.81l-28.5-1.45l-5.89,8.99h-7.47
		l-5.49,5.09l-11.9,1.59l-2.13,6.99l-16.62,6.76l-11,10.83l-1.72,10.14l-13.92,14.15l5.1,5.5l-3.67,15.93l-3.55,8.31l-6.39,11.86
		l0.32,15.76l8.71,10.54l2.01,8.77L100.17,204.47z M315.1,252.45v17.35l-1.36,16.76l-5.85,13.25l-7.41,11.7l-6.04,11.7l-9.55,14.23
		l-2.73,6.43l-7.02,11.89l-10.92,11.5l-9.36,8.77l-5.65,5.85l-6.44,3.81l-5.96,1.46l-4.39,3.81l-10.55,1.09h-11.03l-8.3-3.63
		l-6.74-0.2l-5.47-3.91l-6.64-1.37l-3.22-4.3l-6.15-3.42l-4.39-6.15l-4.1-6.35l-4.69-4.3l-1.76-4.3l-2.73-4.49l-3.03-7.42
		l-5.37-6.74l-1.86-5.76l-6.15-7.81l-6.11-5.96l-3.46-12.21l-4.58-10.23l-5.28-8.26l-1.86-8.98l-3.39-1.39l-1.2-5.69l1.54-11.2
		l-1.54-7.63l2.23-2.43l5.73,3.7l1.11,15.28l3.82,10.34l1.75,9.23l7.16,15.6l4.93,7.16l4.46-9.07l6.84,4.46l4.46,5.57l3.18-14.32
		l2.65-8.65l8.18-4.17l7.51,1.84l10.35-5.82h11.02l6.28,5.22l9.96,2.01l7.3,1.43l4.34-5.01l10.02-2.84l10.52,2.84l8.18-0.5
		l7.51,2.67l7.18,5.68l1.04,6.44l-1.76,10.11l0.66,7.03h3.08l7.25-9.01l4.18-0.44l8.13-6.15l7.69-11.65l0.88-8.13l2.37-11.69
		l4.29-12.67L315.1,252.45z M261.83,296.13l-21.32-4.54l-11.42,4.95l-11.69-0.83l-12.52,1.51l-8.54-4.82l-16.08,0.83l-9.63,2.61
		l2.06,9.63l-1.38,9.08l4.13,7.84l7.02,7.7l2.89,11.01l10.04,7.98l9.91-9.08l3.71-5.92l7-3.16l6.9,0.96l4.82,8.8l9.22,7.7l8.94-7.98
		l7.57-14.17l8.39-18.02V296.13z"/>
</g>
</svg>
